<svg
      width="60"
      height="60"
      viewBox="0 0 60 60"
      fill="none"
      xmlns="http://www.w3.org/2000/svg"
    >
      <path
        d="M30 60C46.5685 60 60 46.5685 60 30C60 13.4315 46.5685 0 30 0C13.4315 0 0 13.4315 0 30C0 46.5685 13.4315 60 30 60Z"
        fill="#2DBE78"
      />
      <path
        d="M38.5048 26.8689C37.2728 27.773 35.7844 28.2605 34.2563 28.2605C32.7281 28.2605 31.2397 27.773 30.0077 26.8689C28.7756 27.773 27.2873 28.2605 25.7591 28.2605C24.231 28.2605 22.7426 27.773 21.5106 26.8689C20.2925 27.806 18.7988 28.3141 17.262 28.3141C15.7252 28.3141 14.2315 27.806 13.0134 26.8689V45.3257C13.01 46.4518 13.4536 47.5333 14.2467 48.3327C15.0399 49.1322 16.1179 49.5842 17.244 49.5897H24.3301V33.9859C24.3308 33.61 24.4805 33.2498 24.7465 32.9843C25.0125 32.7188 25.373 32.5697 25.7488 32.5697H34.246C34.6216 32.5697 34.9818 32.7189 35.2474 32.9845C35.5129 33.2501 35.6621 33.6103 35.6621 33.9859V49.5897H42.7508C43.3093 49.5897 43.8623 49.4797 44.3782 49.2659C44.8942 49.052 45.3629 48.7387 45.7577 48.3437C46.1525 47.9486 46.4656 47.4797 46.6791 46.9636C46.8926 46.4475 47.0023 45.8945 47.0019 45.336V26.8689C45.7839 27.806 44.2902 28.3141 42.7534 28.3141C41.2166 28.3141 39.7229 27.806 38.5048 26.8689Z"
        fill="white"
      />
      <path
        d="M12.9902 21.2297C12.9902 21.7882 13.1003 22.3412 13.3141 22.8572C13.5279 23.3731 13.8412 23.8419 14.2363 24.2367C14.6313 24.6314 15.1002 24.9445 15.6163 25.158C16.1324 25.3715 16.6855 25.4812 17.2439 25.4809C17.8496 25.4806 18.4479 25.349 18.9978 25.0952C19.5477 24.8414 20.036 24.4713 20.4291 24.0106C20.6948 23.7305 21.0604 23.5669 21.4463 23.5553C21.8322 23.5437 22.207 23.6852 22.489 23.9488C22.5117 23.9681 22.5332 23.9887 22.5534 24.0106C22.9273 24.4312 23.3807 24.7739 23.8873 25.0189C24.394 25.264 24.944 25.4066 25.5059 25.4387C26.0678 25.4707 26.6306 25.3916 27.1618 25.2057C27.693 25.0199 28.1824 24.731 28.6018 24.3556C28.7168 24.2492 28.8275 24.1385 28.9339 24.0235C29.1996 23.7434 29.5653 23.5797 29.9512 23.5681C30.337 23.5566 30.7118 23.698 30.9938 23.9617C31.0165 23.981 31.038 24.0016 31.0582 24.0235C31.4331 24.4432 31.8871 24.7848 32.3942 25.0287C32.9013 25.2726 33.4516 25.414 34.0135 25.4449C34.5754 25.4758 35.1378 25.3954 35.6686 25.2085C36.1994 25.0216 36.6881 24.7318 37.1066 24.3556C37.2216 24.2492 37.3324 24.1385 37.4388 24.0235C37.7045 23.7434 38.0701 23.5797 38.456 23.5681C38.8419 23.5566 39.2167 23.698 39.4987 23.9617C39.5214 23.981 39.5429 24.0016 39.5631 24.0235C39.9559 24.4845 40.4442 24.8547 40.9941 25.1085C41.544 25.3624 42.1425 25.4938 42.7482 25.4937C43.8757 25.4937 44.957 25.0459 45.7542 24.2486C46.5514 23.4514 46.9993 22.3701 46.9993 21.2426L12.9902 21.2297Z"
        fill="#135334"
      />
      <path
        d="M14.4089 9.89014C14.1114 9.89024 13.8213 9.98373 13.5797 10.1574C13.3381 10.3311 13.1571 10.5763 13.0623 10.8583L10.5518 18.395H20.0788V9.89786L14.4089 9.89014Z"
        fill="white"
      />
      <path d="M28.584 9.89014H22.9141V18.395H28.584V9.89014Z" fill="white" />
      <path
        d="M46.9376 10.8583C46.8432 10.5765 46.6626 10.3314 46.4215 10.1577C46.1803 9.98398 45.8907 9.89039 45.5935 9.89014H39.9287V18.3873H49.4558L46.9376 10.8583Z"
        fill="white"
      />
      <path d="M37.0886 9.89014H31.4187V18.395H37.0886V9.89014Z" fill="white" />
    </svg>